<svg xmlns="http://www.w3.org/2000/svg" width="404" height="550" viewBox="0 0 404 550">
  <g id="Group_53" data-name="Group 53" transform="translate(-692 -77)">
    <g id="Rectangle_188" data-name="Rectangle 188" transform="translate(692 77)" fill="none" stroke="#ed0049" stroke-width="1">
      <rect width="404" height="550" rx="28" stroke="none"/>
      <rect x="0.5" y="0.5" width="403" height="549" rx="27.5" fill="none"/>
    </g>
    <path id="Rectangle_191" data-name="Rectangle 191" d="M0,0H404a0,0,0,0,1,0,0V164a28,28,0,0,1-28,28H28A28,28,0,0,1,0,164V0A0,0,0,0,1,0,0Z" transform="translate(692 435)" fill="#ed0049"/>
    <g id="Group_34" data-name="Group 34" transform="translate(-250 -112)">
      <circle id="Ellipse_1" data-name="Ellipse 1" cx="30" cy="30" r="30" transform="translate(1114 384)" fill="#ed0049"/>
      <path id="Polygon_1" data-name="Polygon 1" d="M12.031,6.043a4,4,0,0,1,6.938,0L27.56,21.009A4,4,0,0,1,24.091,27H6.909A4,4,0,0,1,3.44,21.009Z" transform="translate(1162 398) rotate(90)" fill="#fff"/>
    </g>
  </g>
</svg>
