<?xml version="1.0" encoding="utf-8"?>
<!-- Generator: Adobe Illustrator 26.4.1, SVG Export Plug-In . SVG Version: 6.00 Build 0)  -->
<svg version="1.1" id="Layer_1" xmlns="http://www.w3.org/2000/svg" xmlns:xlink="http://www.w3.org/1999/xlink" x="0px" y="0px"
	 viewBox="0 0 1536 1516" style="enable-background:new 0 0 1536 1516;" xml:space="preserve">
<style type="text/css">
	.st0{fill:#E40046;}
	.st1{fill:#FFBC01;}
</style>
<g>
	<g>
		<g>
			<path class="st0" d="M1531,5v1506H5V5H1531 M1534,2H2v1512h1532V2L1534,2z"/>
		</g>
	</g>
	<g>
		<g>
			<path class="st0" d="M1411,127v445H125V127H1411 M1414,124H122v451h1292V124L1414,124z"/>
		</g>
	</g>
	<g>
		<g>
			<path class="st1" d="M1411,660v702H125V660H1411 M1414,657H122v708h1292V657L1414,657z"/>
		</g>
	</g>
	<g>
		<g>
			<path class="st0" d="M1292,262v167H244V262H1292 M1295,259H241v173h1054V259L1295,259z"/>
		</g>
	</g>
	<g>
		<path class="st0" d="M39.4,63.2v-4.9l19.3-9.1v5.3l-14.3,6.2L58.7,67v5.3L39.4,63.2z"/>
		<path class="st0" d="M75.4,50.8c1.2-0.6,2.6-0.8,4-0.8c1.8,0,3.4,0.4,4.8,1.1c1.4,0.8,2.5,1.8,3.2,3.2c0.8,1.4,1.2,3,1.2,4.8v14.5
			h-5.3V60.7c0-1.9-0.5-3.3-1.4-4.3c-0.9-1-2.2-1.5-3.9-1.5c-1.6,0-3,0.5-4.1,1.6c-1.1,1-1.6,2.5-1.6,4.3v12.8H67V38.9h5.2v14.4
			C73.1,52.2,74.1,51.3,75.4,50.8z"/>
		<path class="st0" d="M102.7,55.2v9.6c0,1.5,0.4,2.6,1.1,3.3c0.7,0.7,1.6,1.1,2.8,1.1c0.8,0,1.6-0.1,2.4-0.4
			c0.8-0.3,1.5-0.7,2.2-1.2l2,4.1c-2.3,1.6-4.7,2.4-7.3,2.4c-2.8,0-4.8-0.8-6.3-2.3c-1.4-1.5-2.1-3.8-2.1-6.7v-10h-4.7v-4.7h4.7
			v-7.1h5.3v7.1h9v4.7H102.7z"/>
		<path class="st0" d="M152.6,52.4c1.7,1.7,2.6,3.9,2.6,6.6v14.5h-5.2V60.7c0-1.9-0.5-3.3-1.4-4.3c-0.9-1-2.2-1.5-3.9-1.5
			c-1.6,0-3,0.5-4.1,1.6c-1.1,1-1.6,2.5-1.6,4.3v12.8h-5.3V60.7c0-1.9-0.5-3.3-1.4-4.3c-0.9-1-2.2-1.5-3.9-1.5c-1.6,0-3,0.5-4.1,1.6
			c-1.1,1-1.6,2.5-1.6,4.3v12.8h-5.2V50.5h5.1v3.1c0.8-1.2,1.8-2.2,3.1-2.7c1.3-0.6,2.6-0.9,4.1-0.9c1.8,0,3.4,0.4,4.8,1.2
			s2.5,1.8,3.2,3.2c0.8-1.5,2-2.6,3.4-3.3c1.5-0.7,3-1.1,4.7-1.1C148.7,49.9,150.9,50.8,152.6,52.4z"/>
		<path class="st0" d="M162.1,73.5V39h5.2v34.6H162.1z"/>
		<path class="st0" d="M195.1,58.3v4.9l-19.3,9.1V67l14.3-6.2l-14.3-6.3v-5.3L195.1,58.3z"/>
	</g>
	<g>
		<path class="st0" d="M39.4,1445.2v-4.9l19.3-9.1v5.3l-14.3,6.2l14.3,6.2v5.3L39.4,1445.2z"/>
		<path class="st0" d="M62.8,1460.3l20.4-41.8h5.6l-20.4,41.8H62.8z"/>
		<path class="st0" d="M99.9,1432.8c1.2-0.6,2.6-0.8,4-0.8c1.8,0,3.4,0.4,4.8,1.1c1.4,0.8,2.5,1.8,3.2,3.2c0.8,1.4,1.2,3,1.2,4.8
			v14.5h-5.3v-12.9c0-1.9-0.5-3.3-1.4-4.3c-0.9-1-2.2-1.5-3.9-1.5c-1.6,0-3,0.5-4.1,1.6c-1.1,1-1.6,2.5-1.6,4.3v12.8h-5.2v-34.6h5.2
			v14.4C97.6,1434.2,98.7,1433.3,99.9,1432.8z"/>
		<path class="st0" d="M127.2,1437.2v9.6c0,1.5,0.4,2.6,1.1,3.3c0.7,0.7,1.6,1.1,2.8,1.1c0.8,0,1.6-0.1,2.4-0.4
			c0.8-0.3,1.5-0.7,2.2-1.2l2,4.1c-2.3,1.6-4.7,2.4-7.3,2.4c-2.8,0-4.8-0.8-6.3-2.3c-1.4-1.5-2.1-3.8-2.1-6.7v-10h-4.7v-4.7h4.7
			v-7.1h5.3v7.1h9v4.7H127.2z"/>
		<path class="st0" d="M177.1,1434.4c1.7,1.7,2.6,3.9,2.6,6.6v14.5h-5.2v-12.9c0-1.9-0.5-3.3-1.4-4.3c-0.9-1-2.2-1.5-3.9-1.5
			c-1.6,0-3,0.5-4.1,1.6c-1.1,1-1.6,2.5-1.6,4.3v12.8h-5.3v-12.9c0-1.9-0.5-3.3-1.4-4.3c-0.9-1-2.2-1.5-3.9-1.5
			c-1.6,0-3,0.5-4.1,1.6c-1.1,1-1.6,2.5-1.6,4.3v12.8H142v-23.1h5.1v3.1c0.8-1.2,1.8-2.2,3.1-2.7c1.3-0.6,2.6-0.9,4.1-0.9
			c1.8,0,3.4,0.4,4.8,1.2c1.4,0.8,2.5,1.8,3.2,3.2c0.8-1.5,2-2.6,3.4-3.3c1.5-0.7,3-1.1,4.7-1.1
			C173.2,1431.9,175.4,1432.8,177.1,1434.4z"/>
		<path class="st0" d="M186.7,1455.5V1421h5.2v34.6H186.7z"/>
		<path class="st0" d="M219.6,1440.3v4.9l-19.3,9.1v-5.3l14.3-6.2l-14.3-6.3v-5.3L219.6,1440.3z"/>
	</g>
	<g>
		<path class="st0" d="M166.4,195.2v-4.9l19.3-9.1v5.3l-14.3,6.2l14.3,6.2v5.3L166.4,195.2z"/>
		<path class="st0" d="M202.4,182.8c1.2-0.6,2.6-0.8,4-0.8c1.8,0,3.4,0.4,4.8,1.1c1.4,0.8,2.5,1.8,3.2,3.2c0.8,1.4,1.2,3,1.2,4.8
			v14.5h-5.3v-12.9c0-1.9-0.5-3.3-1.4-4.3c-0.9-1-2.2-1.5-3.9-1.5c-1.6,0-3,0.5-4.1,1.6c-1.1,1-1.6,2.5-1.6,4.3v12.8H194v-34.6h5.2
			v14.4C200.1,184.2,201.1,183.3,202.4,182.8z"/>
		<path class="st0" d="M238.3,183.4c1.7,1,3,2.4,3.9,4.2c0.9,1.8,1.4,3.9,1.4,6.2c0,0.6,0,1.2-0.1,1.8h-17.2c0.3,1.9,1,3.3,2.3,4.3
			c1.2,1,2.7,1.5,4.5,1.5c1.2,0,2.3-0.2,3.4-0.6c1.1-0.4,2.1-1,3-1.8l3.1,3.4c-2.6,2.4-5.8,3.6-9.7,3.6c-2.3,0-4.4-0.5-6.1-1.5
			c-1.8-1-3.2-2.4-4.2-4.2c-1-1.8-1.5-3.9-1.5-6.3c0-2.4,0.5-4.5,1.5-6.3c1-1.8,2.4-3.3,4.1-4.3c1.8-1,3.8-1.5,6-1.5
			C234.7,181.9,236.6,182.4,238.3,183.4z M228.4,188c-1.1,1-1.7,2.4-2,4.1h11.9c-0.2-1.7-0.9-3.1-1.9-4.1c-1-1-2.3-1.5-3.9-1.5
			C230.8,186.5,229.5,187,228.4,188z"/>
		<path class="st0" d="M266.5,205.5v-3.1c-1.8,2.5-4.3,3.7-7.5,3.7c-2.1,0-4-0.5-5.7-1.6c-1.7-1.1-3.1-2.5-4.1-4.4
			c-1-1.9-1.5-3.9-1.5-6.2c0-2.2,0.5-4.3,1.5-6.1c1-1.8,2.3-3.3,4.1-4.3c1.7-1.1,3.6-1.6,5.7-1.6c3.2,0,5.7,1.2,7.5,3.6v-3.1h5.2
			v23.1H266.5z M255,188.9c-1.2,1.4-1.9,3.1-1.9,5.1s0.6,3.7,1.9,5.1c1.3,1.4,2.9,2.1,4.9,2.1c2,0,3.7-0.7,4.9-2
			c1.3-1.4,1.9-3.1,1.9-5.2c0-2-0.6-3.8-1.9-5.1c-1.3-1.4-2.9-2-4.9-2S256.2,187.5,255,188.9z"/>
		<path class="st0" d="M296,185.4V171h5.2v34.6h-5.2v-3.1c-1.8,2.5-4.3,3.7-7.5,3.7c-2.1,0-4-0.5-5.7-1.6c-1.7-1.1-3.1-2.5-4.1-4.4
			c-1-1.9-1.5-3.9-1.5-6.2c0-2.2,0.5-4.3,1.5-6.1c1-1.8,2.3-3.3,4.1-4.3c1.7-1.1,3.6-1.6,5.7-1.6C291.8,181.9,294.2,183.1,296,185.4
			z M284.6,188.9c-1.2,1.4-1.9,3.1-1.9,5.1s0.6,3.7,1.9,5.1c1.3,1.4,2.9,2.1,4.9,2.1c2,0,3.7-0.7,4.9-2c1.3-1.4,1.9-3.1,1.9-5.2
			c0-2-0.6-3.8-1.9-5.1c-1.3-1.4-2.9-2-4.9-2S285.8,187.5,284.6,188.9z"/>
		<path class="st0" d="M328.9,190.3v4.9l-19.3,9.1V199l14.3-6.2l-14.3-6.3v-5.3L328.9,190.3z"/>
	</g>
	<g>
		<path class="st1" d="M166.4,731.2v-4.9l19.3-9.1v5.3l-14.3,6.2l14.3,6.2v5.3L166.4,731.2z"/>
		<path class="st1" d="M212.4,719.5c1.7,1.1,3.1,2.5,4.1,4.3c1,1.8,1.5,3.9,1.5,6.1c0,2.3-0.5,4.3-1.5,6.2c-1,1.9-2.3,3.3-4.1,4.4
			c-1.7,1.1-3.6,1.6-5.7,1.6c-3.1,0-5.6-1.2-7.5-3.6v3.1H194V707h5.2v14.4c1.8-2.3,4.2-3.5,7.4-3.5
			C208.8,717.9,210.7,718.5,212.4,719.5z M200.9,724.9c-1.3,1.4-1.9,3.1-1.9,5.1c0,2.1,0.6,3.8,1.9,5.2c1.3,1.4,2.9,2,4.9,2
			c2,0,3.7-0.7,4.9-2.1c1.3-1.4,1.9-3.1,1.9-5.1s-0.6-3.8-1.9-5.1c-1.3-1.4-2.9-2-4.9-2C203.8,722.8,202.2,723.5,200.9,724.9z"/>
		<path class="st1" d="M240.7,719.5c1.9,1,3.4,2.5,4.4,4.3c1.1,1.8,1.6,3.9,1.6,6.2s-0.5,4.3-1.6,6.2c-1.1,1.9-2.6,3.3-4.4,4.4
			c-1.9,1.1-4,1.6-6.3,1.6c-2.3,0-4.4-0.5-6.3-1.6c-1.9-1.1-3.3-2.5-4.4-4.4c-1.1-1.9-1.6-3.9-1.6-6.2s0.5-4.3,1.6-6.2
			c1.1-1.8,2.5-3.3,4.4-4.3s4-1.6,6.3-1.6C236.7,717.9,238.9,718.4,240.7,719.5z M229.5,724.8c-1.3,1.3-2,3.1-2,5.1
			c0,2.1,0.7,3.8,2,5.2c1.3,1.3,3,2,4.9,2c2,0,3.7-0.7,5-2c1.3-1.3,2-3.1,2-5.2c0-2.1-0.7-3.8-2-5.1c-1.3-1.3-3-2-5-2
			C232.4,722.8,230.8,723.5,229.5,724.8z"/>
		<path class="st1" d="M269.6,721.4V707h5.2v34.6h-5.2v-3.1c-1.8,2.5-4.3,3.7-7.5,3.7c-2.1,0-4-0.5-5.7-1.6
			c-1.7-1.1-3.1-2.5-4.1-4.4c-1-1.9-1.5-3.9-1.5-6.2c0-2.2,0.5-4.3,1.5-6.1c1-1.8,2.3-3.3,4.1-4.3c1.7-1.1,3.6-1.6,5.7-1.6
			C265.4,717.9,267.8,719.1,269.6,721.4z M258.2,724.9c-1.2,1.4-1.9,3.1-1.9,5.1s0.6,3.7,1.9,5.1c1.3,1.4,2.9,2.1,4.9,2.1
			c2,0,3.7-0.7,4.9-2c1.3-1.4,1.9-3.1,1.9-5.2c0-2-0.6-3.8-1.9-5.1c-1.3-1.4-2.9-2-4.9-2S259.4,723.5,258.2,724.9z"/>
		<path class="st1" d="M280.7,751.2l8.3-14.7l-10.2-18.1h6l7.2,12.8l6.8-12.8h5.8l-18.1,32.8H280.7z"/>
		<path class="st1" d="M328.9,726.3v4.9l-19.3,9.1V735l14.3-6.2l-14.3-6.3v-5.3L328.9,726.3z"/>
	</g>
	<g>
		<path class="st1" d="M166.4,1290.2v-4.9l19.3-9.1v5.3l-14.3,6.2l14.3,6.2v5.3L166.4,1290.2z"/>
		<path class="st1" d="M212.4,1278.5c1.7,1.1,3.1,2.5,4.1,4.3c1,1.8,1.5,3.9,1.5,6.1c0,2.3-0.5,4.3-1.5,6.2c-1,1.9-2.3,3.3-4.1,4.4
			c-1.7,1.1-3.6,1.6-5.7,1.6c-3.1,0-5.6-1.2-7.5-3.6v3.1H194V1266h5.2v14.4c1.8-2.3,4.2-3.5,7.4-3.5
			C208.8,1276.9,210.7,1277.5,212.4,1278.5z M200.9,1283.9c-1.3,1.4-1.9,3.1-1.9,5.1c0,2.1,0.6,3.8,1.9,5.2c1.3,1.4,2.9,2,4.9,2
			c2,0,3.7-0.7,4.9-2.1c1.3-1.4,1.9-3.1,1.9-5.1s-0.6-3.8-1.9-5.1c-1.3-1.4-2.9-2-4.9-2C203.8,1281.8,202.2,1282.5,200.9,1283.9z"/>
		<path class="st1" d="M240.7,1278.5c1.9,1,3.4,2.5,4.4,4.3c1.1,1.8,1.6,3.9,1.6,6.2s-0.5,4.3-1.6,6.2c-1.1,1.9-2.6,3.3-4.4,4.4
			c-1.9,1.1-4,1.6-6.3,1.6c-2.3,0-4.4-0.5-6.3-1.6c-1.9-1.1-3.3-2.5-4.4-4.4c-1.1-1.9-1.6-3.9-1.6-6.2s0.5-4.3,1.6-6.2
			c1.1-1.8,2.5-3.3,4.4-4.3s4-1.6,6.3-1.6C236.7,1276.9,238.9,1277.4,240.7,1278.5z M229.5,1283.8c-1.3,1.3-2,3.1-2,5.1
			c0,2.1,0.7,3.8,2,5.2c1.3,1.3,3,2,4.9,2c2,0,3.7-0.7,5-2c1.3-1.3,2-3.1,2-5.2c0-2.1-0.7-3.8-2-5.1c-1.3-1.3-3-2-5-2
			C232.4,1281.8,230.8,1282.5,229.5,1283.8z"/>
		<path class="st1" d="M269.6,1280.4V1266h5.2v34.6h-5.2v-3.1c-1.8,2.5-4.3,3.7-7.5,3.7c-2.1,0-4-0.5-5.7-1.6
			c-1.7-1.1-3.1-2.5-4.1-4.4c-1-1.9-1.5-3.9-1.5-6.2c0-2.2,0.5-4.3,1.5-6.1c1-1.8,2.3-3.3,4.1-4.3c1.7-1.1,3.6-1.6,5.7-1.6
			C265.4,1276.9,267.8,1278.1,269.6,1280.4z M258.2,1283.9c-1.2,1.4-1.9,3.1-1.9,5.1s0.6,3.7,1.9,5.1c1.3,1.4,2.9,2.1,4.9,2.1
			c2,0,3.7-0.7,4.9-2c1.3-1.4,1.9-3.1,1.9-5.2c0-2-0.6-3.8-1.9-5.1c-1.3-1.4-2.9-2-4.9-2S259.4,1282.5,258.2,1283.9z"/>
		<path class="st1" d="M280.7,1310.2l8.3-14.7l-10.2-18.1h6l7.2,12.8l6.8-12.8h5.8l-18.1,32.8H280.7z"/>
		<path class="st1" d="M328.9,1285.3v4.9l-19.3,9.1v-5.3l14.3-6.2l-14.3-6.3v-5.3L328.9,1285.3z"/>
	</g>
	<g>
		<path class="st0" d="M166.4,503.2v-4.9l19.3-9.1v5.3l-14.3,6.2l14.3,6.2v5.3L166.4,503.2z"/>
		<path class="st0" d="M189.8,518.3l20.4-41.8h5.6l-20.4,41.8H189.8z"/>
		<path class="st0" d="M226.9,490.8c1.2-0.6,2.6-0.8,4-0.8c1.8,0,3.4,0.4,4.8,1.1c1.4,0.8,2.5,1.8,3.2,3.2c0.8,1.4,1.2,3,1.2,4.8
			v14.5h-5.3v-12.9c0-1.9-0.5-3.3-1.4-4.3c-0.9-1-2.2-1.5-3.9-1.5c-1.6,0-3,0.5-4.1,1.6c-1.1,1-1.6,2.5-1.6,4.3v12.8h-5.2v-34.6h5.2
			v14.4C224.6,492.2,225.7,491.3,226.9,490.8z"/>
		<path class="st0" d="M262.8,491.4c1.7,1,3,2.4,3.9,4.2c0.9,1.8,1.4,3.9,1.4,6.2c0,0.6,0,1.2-0.1,1.8h-17.2c0.3,1.9,1,3.3,2.3,4.3
			c1.2,1,2.7,1.5,4.5,1.5c1.2,0,2.3-0.2,3.4-0.6c1.1-0.4,2.1-1,3-1.8l3.1,3.4c-2.6,2.4-5.8,3.6-9.7,3.6c-2.3,0-4.4-0.5-6.1-1.5
			c-1.8-1-3.2-2.4-4.2-4.2c-1-1.8-1.5-3.9-1.5-6.3c0-2.4,0.5-4.5,1.5-6.3c1-1.8,2.4-3.3,4.1-4.3c1.8-1,3.8-1.5,6-1.5
			C259.3,489.9,261.2,490.4,262.8,491.4z M252.9,496c-1.1,1-1.7,2.4-2,4.1h11.9c-0.2-1.7-0.9-3.1-1.9-4.1c-1-1-2.3-1.5-3.9-1.5
			C255.4,494.5,254,495,252.9,496z"/>
		<path class="st0" d="M291,513.5v-3.1c-1.8,2.5-4.3,3.7-7.5,3.7c-2.1,0-4-0.5-5.7-1.6c-1.7-1.1-3.1-2.5-4.1-4.4
			c-1-1.9-1.5-3.9-1.5-6.2c0-2.2,0.5-4.3,1.5-6.1c1-1.8,2.3-3.3,4.1-4.3c1.7-1.1,3.6-1.6,5.7-1.6c3.2,0,5.7,1.2,7.5,3.6v-3.1h5.2
			v23.1H291z M279.5,496.9c-1.2,1.4-1.9,3.1-1.9,5.1s0.6,3.7,1.9,5.1c1.3,1.4,2.9,2.1,4.9,2.1c2,0,3.7-0.7,4.9-2
			c1.3-1.4,1.9-3.1,1.9-5.2c0-2-0.6-3.8-1.9-5.1c-1.3-1.4-2.9-2-4.9-2S280.8,495.5,279.5,496.9z"/>
		<path class="st0" d="M320.6,493.4V479h5.2v34.6h-5.2v-3.1c-1.8,2.5-4.3,3.7-7.5,3.7c-2.1,0-4-0.5-5.7-1.6
			c-1.7-1.1-3.1-2.5-4.1-4.4c-1-1.9-1.5-3.9-1.5-6.2c0-2.2,0.5-4.3,1.5-6.1c1-1.8,2.3-3.3,4.1-4.3c1.7-1.1,3.6-1.6,5.7-1.6
			C316.3,489.9,318.8,491.1,320.6,493.4z M309.1,496.9c-1.2,1.4-1.9,3.1-1.9,5.1s0.6,3.7,1.9,5.1c1.3,1.4,2.9,2.1,4.9,2.1
			c2,0,3.7-0.7,4.9-2c1.3-1.4,1.9-3.1,1.9-5.2c0-2-0.6-3.8-1.9-5.1c-1.3-1.4-2.9-2-4.9-2S310.3,495.5,309.1,496.9z"/>
		<path class="st0" d="M353.4,498.3v4.9l-19.3,9.1V507l14.3-6.2l-14.3-6.3v-5.3L353.4,498.3z"/>
	</g>
	<g>
		<path class="st0" d="M289.4,351.2v-4.9l19.3-9.1v5.3l-14.3,6.2l14.3,6.2v5.3L289.4,351.2z"/>
		<path class="st0" d="M324.5,343.2v9.6c0,1.5,0.4,2.6,1.1,3.3c0.7,0.7,1.6,1.1,2.8,1.1c0.8,0,1.6-0.1,2.4-0.4
			c0.8-0.3,1.5-0.7,2.2-1.2l2,4.1c-2.3,1.6-4.7,2.4-7.3,2.4c-2.8,0-4.8-0.8-6.3-2.3c-1.4-1.5-2.1-3.8-2.1-6.7v-10h-4.7v-4.7h4.7
			v-7.1h5.3v7.1h9v4.7H324.5z"/>
		<path class="st0" d="M344.3,328.3c0.7,0.7,1,1.5,1,2.4s-0.3,1.8-1,2.4c-0.7,0.7-1.5,1-2.4,1s-1.8-0.3-2.4-1c-0.7-0.7-1-1.5-1-2.4
			s0.3-1.8,1-2.4c0.7-0.7,1.5-1,2.4-1S343.6,327.6,344.3,328.3z M339.3,361.5v-23.1h5.2v23.1H339.3z"/>
		<path class="st0" d="M359.2,343.2v9.6c0,1.5,0.4,2.6,1.1,3.3c0.7,0.7,1.6,1.1,2.8,1.1c0.8,0,1.6-0.1,2.4-0.4
			c0.8-0.3,1.5-0.7,2.2-1.2l2,4.1c-2.3,1.6-4.7,2.4-7.3,2.4c-2.8,0-4.8-0.8-6.3-2.3c-1.4-1.5-2.1-3.8-2.1-6.7v-10h-4.7v-4.7h4.7
			v-7.1h5.3v7.1h9v4.7H359.2z"/>
		<path class="st0" d="M374,361.5V327h5.2v34.6H374z"/>
		<path class="st0" d="M402.3,339.4c1.7,1,3,2.4,3.9,4.2c0.9,1.8,1.4,3.9,1.4,6.2c0,0.6,0,1.2-0.1,1.8h-17.2c0.3,1.9,1,3.3,2.3,4.3
			c1.2,1,2.7,1.5,4.5,1.5c1.2,0,2.3-0.2,3.4-0.6c1.1-0.4,2.1-1,3-1.8l3.1,3.4c-2.6,2.4-5.8,3.6-9.7,3.6c-2.3,0-4.4-0.5-6.1-1.5
			c-1.8-1-3.2-2.4-4.2-4.2c-1-1.8-1.5-3.9-1.5-6.3c0-2.4,0.5-4.5,1.5-6.3c1-1.8,2.4-3.3,4.1-4.3c1.8-1,3.8-1.5,6-1.5
			C398.7,337.9,400.6,338.4,402.3,339.4z M392.3,344c-1.1,1-1.7,2.4-2,4.1h11.9c-0.2-1.7-0.9-3.1-1.9-4.1c-1-1-2.3-1.5-3.9-1.5
			C394.8,342.5,393.4,343,392.3,344z"/>
		<path class="st0" d="M433.7,346.3v4.9l-19.3,9.1V355l14.3-6.2l-14.3-6.3v-5.3L433.7,346.3z"/>
		<path class="st0" d="M457.9,358.6c-2.4-2.3-3.6-5.7-3.6-10v-20.7h5.7v20.4c0,2.9,0.7,5,2,6.4c1.3,1.4,3.1,2.1,5.4,2.1
			c2.3,0,4.1-0.6,5.4-1.7c1.3-1.2,2-2.7,2-4.8c0-1.1-0.2-2-0.6-2.7c-0.4-0.7-1-1.6-1.8-2.4c-0.9-1.1-1.5-2-1.9-2.8
			c-0.4-0.8-0.6-1.8-0.6-3h5.6c0,0.6,0.2,1.1,0.5,1.6c0.3,0.5,0.8,1.1,1.4,1.8c1.1,1.2,1.9,2.4,2.4,3.6c0.6,1.1,0.8,2.6,0.8,4.5
			c0,2.2-0.6,4.1-1.7,5.8c-1.1,1.7-2.7,3-4.7,4c-2,1-4.3,1.4-6.9,1.4C463.4,362.1,460.2,361,457.9,358.6z"/>
		<path class="st0" d="M491.6,360.5c-2-1.1-3.5-2.6-4.6-4.7c-1.1-2-1.6-4.5-1.6-7.3v-2.2h5.6v1.8c0,2.9,0.7,5,2,6.5
			c1.3,1.5,3.1,2.2,5.4,2.2c2.3,0,4.1-0.6,5.4-1.9c1.3-1.3,2-3.1,2-5.4c0-1.3-0.2-2.5-0.7-3.6c-0.4-1.1-1-2-1.7-2.9
			c-0.7-0.8-1.6-1.8-2.7-3c-1.2-1.2-2.1-2.3-2.9-3.1c-0.7-0.9-1.3-1.9-1.8-3.1c-0.5-1.2-0.7-2.6-0.7-4.1v-1.9h5.6v1.4
			c0,1.5,0.4,2.8,1.1,3.9c0.7,1.1,1.9,2.3,3.4,3.8c1.3,1.2,2.4,2.3,3.2,3.3c0.8,1,1.5,2.3,2.1,3.8c0.6,1.5,0.9,3.3,0.9,5.3
			c0,2.6-0.6,4.8-1.7,6.7c-1.1,1.9-2.7,3.4-4.7,4.4c-2,1-4.3,1.5-6.9,1.5C495.8,362.1,493.6,361.6,491.6,360.5z"/>
		<path class="st0" d="M523,360.6c-1.9-1-3.4-2.6-4.4-4.6c-1.1-2-1.6-4.5-1.6-7.3v-7.8c0-2.8,0.5-5.3,1.6-7.3c1.1-2,2.5-3.6,4.4-4.6
			c1.9-1,4-1.6,6.4-1.6c2.2,0,4.3,0.5,6,1.5c1.8,1,3.1,2.5,3.8,4.5c0.9-2,2.1-3.6,3.7-4.5c1.6-1,3.4-1.5,5.5-1.5
			c2,0,3.9,0.5,5.5,1.5c1.7,1,3,2.4,3.9,4.3c1,1.8,1.4,4,1.4,6.4v22h-5.6v-21.8c0-2.2-0.5-3.9-1.6-5.2c-1-1.3-2.5-1.9-4.3-1.9
			c-1.8,0-3.2,0.6-4.2,1.9c-1,1.2-1.5,3-1.5,5.2v8.9c0,2.8-0.5,5.3-1.6,7.3c-1.1,2-2.6,3.6-4.5,4.6c-1.9,1-4.1,1.6-6.6,1.6
			C527.1,362.1,524.9,361.6,523,360.6z M534.7,354.7c1.3-1.4,1.9-3.6,1.9-6.4v-7.2c0-2.8-0.6-4.9-1.9-6.3c-1.3-1.4-3-2.1-5.1-2.1
			c-2.1,0-3.8,0.7-5,2.1c-1.3,1.4-1.9,3.5-1.9,6.3v7.2c0,2.8,0.6,4.9,1.9,6.4c1.3,1.4,2.9,2.2,5,2.2
			C531.7,356.8,533.4,356.1,534.7,354.7z"/>
		<path class="st0" d="M571.6,360.5c-2-1.1-3.5-2.6-4.6-4.7c-1.1-2-1.6-4.5-1.6-7.3v-2.2h5.6v1.8c0,2.9,0.7,5,2,6.5
			c1.3,1.5,3.1,2.2,5.4,2.2c2.3,0,4.1-0.6,5.4-1.9c1.3-1.3,2-3.1,2-5.4c0-1.3-0.2-2.5-0.7-3.6c-0.4-1.1-1-2-1.7-2.9
			c-0.7-0.8-1.6-1.8-2.7-3c-1.2-1.2-2.1-2.3-2.9-3.1c-0.7-0.9-1.3-1.9-1.8-3.1c-0.5-1.2-0.7-2.6-0.7-4.1v-1.9h5.6v1.4
			c0,1.5,0.4,2.8,1.1,3.9c0.7,1.1,1.9,2.3,3.4,3.8c1.3,1.2,2.4,2.3,3.2,3.3c0.8,1,1.5,2.3,2.1,3.8c0.6,1.5,0.9,3.3,0.9,5.3
			c0,2.6-0.6,4.8-1.7,6.7c-1.1,1.9-2.7,3.4-4.7,4.4c-2,1-4.3,1.5-6.9,1.5C575.8,362.1,573.6,361.6,571.6,360.5z"/>
		<path class="st0" d="M602.9,360.6c-2-1-3.5-2.4-4.6-4.3c-1.1-1.9-1.6-4-1.6-6.5v-2.3h5.6v2c0,2.2,0.7,4,2,5.3
			c1.3,1.3,3.1,1.9,5.4,1.9c2.3,0,4.1-0.7,5.4-2.1c1.3-1.4,1.9-3.5,1.9-6.3v-10.7c0-1.6-0.4-2.9-1.1-3.8c-0.7-0.9-1.7-1.3-3-1.3
			c-1.3,0-2.3,0.4-3,1.2c-0.7,0.8-1,2-1,3.6v5.2h-5.8v-5c0-1.5-0.4-2.6-1.1-3.4c-0.7-0.8-1.7-1.2-3-1.2h-3v-5.4h3c1.6,0,3,0.3,4.2,1
			c1.2,0.7,2.1,1.9,2.7,3.6c0.8-1.7,1.8-3,3.1-3.7c1.3-0.7,2.9-1.1,4.7-1.1c1.7,0,3.2,0.4,4.6,1.2c1.4,0.8,2.4,1.9,3.2,3.4
			s1.2,3.1,1.2,4.9v11.8c0,2.8-0.5,5.2-1.6,7.3c-1.1,2-2.6,3.6-4.6,4.6c-2,1.1-4.2,1.6-6.8,1.6C607.2,362.1,604.9,361.6,602.9,360.6
			z"/>
		<path class="st0" d="M662.5,340.5c1.6,1,2.8,2.3,3.7,4c0.9,1.7,1.3,3.7,1.3,5.8v11.1h-5.8v-10.6c0-2.1-0.4-3.7-1.3-4.9
			c-0.9-1.2-2.2-1.7-3.9-1.7c-1.7,0-3,0.6-4,1.7c-1,1.1-1.5,2.7-1.5,4.7v6.9h-5.8v-6.9c0-2-0.4-3.6-1.3-4.7
			c-0.9-1.1-2.2-1.7-3.9-1.7c-1.7,0-3,0.6-4,1.8c-1,1.2-1.5,2.8-1.5,5v10.5h-5.8v-15.7c0-4.4,0.9-7.9,2.6-10.6
			c1.8-2.7,4-4.6,6.9-5.7c2.8-1.1,5.9-1.7,9.3-1.7h10.2v5.2h-9.5c-4,0-7.2,0.8-9.7,2.3c-2.5,1.5-4,3.8-4.4,7c0.7-1,1.7-1.8,2.8-2.4
			c1.1-0.6,2.3-0.9,3.6-0.9c1.6,0,3.1,0.5,4.5,1.4c1.4,0.9,2.4,2.3,3.1,4.1c1.8-3.7,4.8-5.5,9-5.5
			C659,339.1,660.9,339.6,662.5,340.5z"/>
		<path class="st0" d="M673.6,340.7c0-2.8,0.5-5.2,1.6-7.2c1.1-2,2.6-3.5,4.4-4.6c1.9-1,4.1-1.6,6.5-1.6c2.4,0,4.6,0.5,6.5,1.6
			c1.9,1,3.4,2.6,4.5,4.6c1.1,2,1.6,4.4,1.6,7.2v20.8h-5.6v-20.6c0-2.7-0.6-4.8-1.9-6.2s-3-2.1-5.1-2.1c-2.1,0-3.8,0.7-5,2.1
			c-1.3,1.4-1.9,3.5-1.9,6.1v20.6h-5.7V340.7z"/>
		<path class="st0" d="M719.4,351.2v-4.9l19.3-9.1v5.3l-14.3,6.2l14.3,6.2v5.3L719.4,351.2z"/>
		<path class="st0" d="M742.8,366.3l20.4-41.8h5.6l-20.4,41.8H742.8z"/>
		<path class="st0" d="M777.8,343.2v9.6c0,1.5,0.4,2.6,1.1,3.3c0.7,0.7,1.6,1.1,2.8,1.1c0.8,0,1.6-0.1,2.4-0.4
			c0.8-0.3,1.5-0.7,2.2-1.2l2,4.1c-2.3,1.6-4.7,2.4-7.3,2.4c-2.8,0-4.8-0.8-6.3-2.3c-1.4-1.5-2.1-3.8-2.1-6.7v-10h-4.7v-4.7h4.7
			v-7.1h5.3v7.1h9v4.7H777.8z"/>
		<path class="st0" d="M797.7,328.3c0.7,0.7,1,1.5,1,2.4s-0.3,1.8-1,2.4c-0.7,0.7-1.5,1-2.4,1s-1.8-0.3-2.4-1c-0.7-0.7-1-1.5-1-2.4
			s0.3-1.8,1-2.4c0.7-0.7,1.5-1,2.4-1S797,327.6,797.7,328.3z M792.6,361.5v-23.1h5.2v23.1H792.6z"/>
		<path class="st0" d="M812.5,343.2v9.6c0,1.5,0.4,2.6,1.1,3.3c0.7,0.7,1.6,1.1,2.8,1.1c0.8,0,1.6-0.1,2.4-0.4
			c0.8-0.3,1.5-0.7,2.2-1.2l2,4.1c-2.3,1.6-4.7,2.4-7.3,2.4c-2.8,0-4.8-0.8-6.3-2.3c-1.4-1.5-2.1-3.8-2.1-6.7v-10h-4.7v-4.7h4.7
			v-7.1h5.3v7.1h9v4.7H812.5z"/>
		<path class="st0" d="M827.3,361.5V327h5.2v34.6H827.3z"/>
		<path class="st0" d="M855.6,339.4c1.7,1,3,2.4,3.9,4.2c0.9,1.8,1.4,3.9,1.4,6.2c0,0.6,0,1.2-0.1,1.8h-17.2c0.3,1.9,1,3.3,2.3,4.3
			c1.2,1,2.7,1.5,4.5,1.5c1.2,0,2.3-0.2,3.4-0.6c1.1-0.4,2.1-1,3-1.8l3.1,3.4c-2.6,2.4-5.8,3.6-9.7,3.6c-2.3,0-4.4-0.5-6.1-1.5
			c-1.8-1-3.2-2.4-4.2-4.2c-1-1.8-1.5-3.9-1.5-6.3c0-2.4,0.5-4.5,1.5-6.3c1-1.8,2.4-3.3,4.1-4.3c1.8-1,3.8-1.5,6-1.5
			C852,337.9,853.9,338.4,855.6,339.4z M845.7,344c-1.1,1-1.7,2.4-2,4.1h11.9c-0.2-1.7-0.9-3.1-1.9-4.1c-1-1-2.3-1.5-3.9-1.5
			C848.1,342.5,846.8,343,845.7,344z"/>
		<path class="st0" d="M887.1,346.3v4.9l-19.3,9.1V355l14.3-6.2l-14.3-6.3v-5.3L887.1,346.3z"/>
	</g>
	<g>
		<g>
			<path class="st1" d="M1292,805v167H244V805H1292 M1295,802H241v173h1054V802L1295,802z"/>
		</g>
	</g>
	<g>
		<path class="st1" d="M289.4,894.2v-4.9l19.3-9.1v5.3l-14.3,6.2l14.3,6.2v5.3L289.4,894.2z"/>
		<path class="st1" d="M325.4,881.8c1.2-0.6,2.6-0.8,4-0.8c1.8,0,3.4,0.4,4.8,1.1c1.4,0.8,2.5,1.8,3.2,3.2c0.8,1.4,1.2,3,1.2,4.8
			v14.5h-5.3v-12.9c0-1.9-0.5-3.3-1.4-4.3c-0.9-1-2.2-1.5-3.9-1.5c-1.6,0-3,0.5-4.1,1.6c-1.1,1-1.6,2.5-1.6,4.3v12.8H317v-34.6h5.2
			v14.4C323.1,883.2,324.1,882.3,325.4,881.8z"/>
		<path class="st1" d="M352.1,904.5v-26.4l-8.8,3.6v-5.5l14.3-5.9v34.1H352.1z"/>
		<path class="st1" d="M386,889.3v4.9l-19.3,9.1V898l14.3-6.2l-14.3-6.3v-5.3L386,889.3z"/>
		<path class="st1" d="M399.7,903.6c-1.9-1-3.4-2.4-4.5-4.3c-1.1-1.9-1.6-4-1.6-6.5v-2.3h5.6v2.2c0,2.2,0.7,3.9,2,5.2
			c1.3,1.3,3.1,1.9,5.2,1.9c2.2,0,4-0.7,5.3-2.1c1.3-1.4,1.9-3.5,1.9-6.2V884c0-2.8-0.7-4.9-2-6.3c-1.3-1.4-3.1-2.1-5.3-2.1
			c-2.1,0-3.8,0.6-5.1,1.8c-1.3,1.2-1.9,2.9-1.9,5v0.9h-5.7v-1c0-2.4,0.5-4.6,1.6-6.4c1.1-1.8,2.6-3.2,4.5-4.2s4.1-1.5,6.6-1.5
			c2.5,0,4.8,0.5,6.7,1.5c1.9,1,3.4,2.5,4.5,4.6c1.1,2,1.6,4.4,1.6,7.3v7.9c0,2.8-0.5,5.2-1.6,7.3c-1.1,2-2.6,3.6-4.5,4.6
			c-1.9,1.1-4.2,1.6-6.7,1.6C403.9,905.1,401.6,904.6,399.7,903.6z"/>
		<path class="st1" d="M429.4,901.6c-2.4-2.3-3.6-5.7-3.6-10v-20.7h5.7v20.4c0,2.9,0.7,5,2,6.4c1.3,1.4,3.1,2.1,5.4,2.1
			c2.3,0,4.1-0.6,5.4-1.7c1.3-1.2,2-2.7,2-4.8c0-1.1-0.2-2-0.6-2.7c-0.4-0.7-1-1.6-1.8-2.4c-0.9-1.1-1.5-2-1.9-2.8
			c-0.4-0.8-0.6-1.8-0.6-3h5.6c0,0.6,0.2,1.1,0.5,1.6c0.3,0.5,0.8,1.1,1.4,1.8c1.1,1.2,1.9,2.4,2.4,3.6c0.6,1.1,0.8,2.6,0.8,4.5
			c0,2.2-0.6,4.1-1.7,5.8c-1.1,1.7-2.7,3-4.7,4c-2,1-4.3,1.4-6.9,1.4C435,905.1,431.8,904,429.4,901.6z"/>
		<path class="st1" d="M474.2,901.6c-2.4-2.3-3.6-5.7-3.6-10v-20.7h5.7v20.4c0,2.9,0.7,5,2,6.4c1.3,1.4,3.1,2.1,5.4,2.1
			c2.3,0,4.1-0.6,5.4-1.7c1.3-1.2,2-2.7,2-4.8c0-1.1-0.2-2-0.6-2.7c-0.4-0.7-1-1.6-1.8-2.4c-0.9-1.1-1.5-2-1.9-2.8
			c-0.4-0.8-0.6-1.8-0.6-3h5.6c0,0.6,0.2,1.1,0.5,1.6c0.3,0.5,0.8,1.1,1.4,1.8c1.1,1.2,1.9,2.4,2.4,3.6c0.6,1.1,0.8,2.6,0.8,4.5
			c0,2.2-0.6,4.1-1.7,5.8c-1.1,1.7-2.7,3-4.7,4c-2,1-4.3,1.4-6.9,1.4C479.7,905.1,476.6,904,474.2,901.6z"/>
		<path class="st1" d="M507.9,903.5c-2-1.1-3.5-2.6-4.6-4.7c-1.1-2-1.6-4.5-1.6-7.3v-2.2h5.6v1.8c0,2.9,0.7,5,2,6.5
			c1.3,1.5,3.1,2.2,5.4,2.2c2.3,0,4.1-0.6,5.4-1.9c1.3-1.3,2-3.1,2-5.4c0-1.3-0.2-2.5-0.7-3.6c-0.4-1.1-1-2-1.7-2.9s-1.6-1.8-2.7-3
			c-1.2-1.2-2.1-2.3-2.9-3.1c-0.7-0.9-1.3-1.9-1.8-3.1c-0.5-1.2-0.7-2.6-0.7-4.1v-1.9h5.6v1.4c0,1.5,0.4,2.8,1.1,3.9
			c0.7,1.1,1.9,2.3,3.4,3.8c1.3,1.2,2.4,2.3,3.2,3.3c0.8,1,1.5,2.3,2.1,3.8s0.9,3.3,0.9,5.3c0,2.6-0.6,4.8-1.7,6.7
			c-1.1,1.9-2.7,3.4-4.7,4.4c-2,1-4.3,1.5-6.9,1.5C512.2,905.1,509.9,904.6,507.9,903.5z"/>
		<path class="st1" d="M539.4,903.6c-1.9-1-3.4-2.6-4.4-4.6c-1.1-2-1.6-4.5-1.6-7.3v-7.8c0-2.8,0.5-5.3,1.6-7.3
			c1.1-2,2.5-3.6,4.4-4.6c1.9-1,4-1.6,6.4-1.6c2.2,0,4.3,0.5,6,1.5c1.8,1,3.1,2.5,3.8,4.5c0.9-2,2.1-3.6,3.7-4.5s3.4-1.5,5.5-1.5
			c2,0,3.9,0.5,5.5,1.5c1.7,1,3,2.4,3.9,4.3c1,1.8,1.4,4,1.4,6.4v22h-5.6v-21.8c0-2.2-0.5-3.9-1.6-5.2c-1-1.3-2.5-1.9-4.3-1.9
			c-1.8,0-3.2,0.6-4.2,1.9c-1,1.2-1.5,3-1.5,5.2v8.9c0,2.8-0.5,5.3-1.6,7.3c-1.1,2-2.6,3.6-4.5,4.6c-1.9,1-4.1,1.6-6.6,1.6
			C543.4,905.1,541.3,904.6,539.4,903.6z M551,897.7c1.3-1.4,1.9-3.6,1.9-6.4v-7.2c0-2.8-0.6-4.9-1.9-6.3c-1.3-1.4-3-2.1-5.1-2.1
			c-2.1,0-3.8,0.7-5,2.1c-1.3,1.4-1.9,3.5-1.9,6.3v7.2c0,2.8,0.6,4.9,1.9,6.4c1.3,1.4,2.9,2.2,5,2.2
			C548,899.8,549.7,899.1,551,897.7z"/>
		<path class="st1" d="M587.9,903.5c-2-1.1-3.5-2.6-4.6-4.7c-1.1-2-1.6-4.5-1.6-7.3v-2.2h5.6v1.8c0,2.9,0.7,5,2,6.5
			c1.3,1.5,3.1,2.2,5.4,2.2c2.3,0,4.1-0.6,5.4-1.9c1.3-1.3,2-3.1,2-5.4c0-1.3-0.2-2.5-0.7-3.6c-0.4-1.1-1-2-1.7-2.9s-1.6-1.8-2.7-3
			c-1.2-1.2-2.1-2.3-2.9-3.1c-0.7-0.9-1.3-1.9-1.8-3.1c-0.5-1.2-0.7-2.6-0.7-4.1v-1.9h5.6v1.4c0,1.5,0.4,2.8,1.1,3.9
			c0.7,1.1,1.9,2.3,3.4,3.8c1.3,1.2,2.4,2.3,3.2,3.3c0.8,1,1.5,2.3,2.1,3.8s0.9,3.3,0.9,5.3c0,2.6-0.6,4.8-1.7,6.7
			c-1.1,1.9-2.7,3.4-4.7,4.4c-2,1-4.3,1.5-6.9,1.5C592.2,905.1,589.9,904.6,587.9,903.5z"/>
		<path class="st1" d="M619.3,903.6c-2-1-3.5-2.4-4.6-4.3c-1.1-1.9-1.6-4-1.6-6.5v-2.3h5.6v2c0,2.2,0.7,4,2,5.3
			c1.3,1.3,3.1,1.9,5.4,1.9c2.3,0,4.1-0.7,5.4-2.1c1.3-1.4,1.9-3.5,1.9-6.3v-10.7c0-1.6-0.4-2.9-1.1-3.8c-0.7-0.9-1.7-1.3-3-1.3
			c-1.3,0-2.3,0.4-3,1.2c-0.7,0.8-1,2-1,3.6v5.2h-5.8v-5c0-1.5-0.4-2.6-1.1-3.4c-0.7-0.8-1.7-1.2-3-1.2h-3v-5.4h3c1.6,0,3,0.3,4.2,1
			c1.2,0.7,2.1,1.9,2.7,3.6c0.8-1.7,1.8-3,3.1-3.7c1.3-0.7,2.9-1.1,4.7-1.1c1.7,0,3.2,0.4,4.6,1.2c1.4,0.8,2.4,1.9,3.2,3.4
			s1.2,3.1,1.2,4.9v11.8c0,2.8-0.5,5.2-1.6,7.3c-1.1,2-2.6,3.6-4.6,4.6c-2,1.1-4.2,1.6-6.8,1.6C623.5,905.1,621.2,904.6,619.3,903.6
			z"/>
		<path class="st1" d="M678.8,883.5c1.6,1,2.8,2.3,3.7,4c0.9,1.7,1.3,3.7,1.3,5.8v11.1h-5.8v-10.6c0-2.1-0.4-3.7-1.3-4.9
			c-0.9-1.2-2.2-1.7-3.9-1.7c-1.7,0-3,0.6-4,1.7c-1,1.1-1.5,2.7-1.5,4.7v6.9h-5.8v-6.9c0-2-0.4-3.6-1.3-4.7
			c-0.9-1.1-2.2-1.7-3.9-1.7c-1.7,0-3,0.6-4,1.8c-1,1.2-1.5,2.8-1.5,5v10.5h-5.8v-15.7c0-4.4,0.9-7.9,2.6-10.6
			c1.8-2.7,4-4.6,6.9-5.7c2.8-1.1,5.9-1.7,9.3-1.7h10.2v5.2h-9.5c-4,0-7.2,0.8-9.7,2.3s-4,3.8-4.4,7c0.7-1,1.7-1.8,2.8-2.4
			c1.1-0.6,2.3-0.9,3.6-0.9c1.6,0,3.1,0.5,4.5,1.4c1.4,0.9,2.4,2.3,3.1,4.1c1.8-3.7,4.8-5.5,9-5.5
			C675.4,882.1,677.2,882.6,678.8,883.5z"/>
		<path class="st1" d="M689.9,883.7c0-2.8,0.5-5.2,1.6-7.2c1.1-2,2.6-3.5,4.4-4.6c1.9-1,4.1-1.6,6.5-1.6c2.4,0,4.6,0.5,6.5,1.6
			c1.9,1,3.4,2.6,4.5,4.6c1.1,2,1.6,4.4,1.6,7.2v20.8h-5.6v-20.6c0-2.7-0.6-4.8-1.9-6.2s-3-2.1-5.1-2.1c-2.1,0-3.8,0.7-5,2.1
			c-1.3,1.4-1.9,3.5-1.9,6.1v20.6h-5.7V883.7z"/>
		<path class="st1" d="M727.3,903.5c-2-1.1-3.5-2.6-4.6-4.7c-1.1-2-1.6-4.5-1.6-7.3v-2.2h5.6v1.8c0,2.9,0.7,5,2,6.5
			c1.3,1.5,3.1,2.2,5.4,2.2c2.3,0,4.1-0.6,5.4-1.9c1.3-1.3,2-3.1,2-5.4c0-1.3-0.2-2.5-0.7-3.6c-0.4-1.1-1-2-1.7-2.9s-1.6-1.8-2.7-3
			c-1.2-1.2-2.1-2.3-2.9-3.1c-0.7-0.9-1.3-1.9-1.8-3.1c-0.5-1.2-0.7-2.6-0.7-4.1v-1.9h5.6v1.4c0,1.5,0.4,2.8,1.1,3.9
			c0.7,1.1,1.9,2.3,3.4,3.8c1.3,1.2,2.4,2.3,3.2,3.3c0.8,1,1.5,2.3,2.1,3.8s0.9,3.3,0.9,5.3c0,2.6-0.6,4.8-1.7,6.7
			c-1.1,1.9-2.7,3.4-4.7,4.4c-2,1-4.3,1.5-6.9,1.5C731.5,905.1,729.2,904.6,727.3,903.5z"/>
		<path class="st1" d="M766.7,894.2v-4.9l19.3-9.1v5.3l-14.3,6.2L786,898v5.3L766.7,894.2z"/>
		<path class="st1" d="M790.1,909.3l20.4-41.8h5.6l-20.4,41.8H790.1z"/>
		<path class="st1" d="M827.2,881.8c1.2-0.6,2.6-0.8,4-0.8c1.8,0,3.4,0.4,4.8,1.1c1.4,0.8,2.5,1.8,3.2,3.2c0.8,1.4,1.2,3,1.2,4.8
			v14.5h-5.3v-12.9c0-1.9-0.5-3.3-1.4-4.3c-0.9-1-2.2-1.5-3.9-1.5c-1.6,0-3,0.5-4.1,1.6c-1.1,1-1.6,2.5-1.6,4.3v12.8h-5.2v-34.6h5.2
			v14.4C824.9,883.2,826,882.3,827.2,881.8z"/>
		<path class="st1" d="M854,904.5v-26.4l-8.8,3.6v-5.5l14.3-5.9v34.1H854z"/>
		<path class="st1" d="M887.8,889.3v4.9l-19.3,9.1V898l14.3-6.2l-14.3-6.3v-5.3L887.8,889.3z"/>
	</g>
	<g>
		<g>
			<path class="st1" d="M1292,1051v167H244v-167H1292 M1295,1048H241v173h1054V1048L1295,1048z"/>
		</g>
	</g>
	<g>
		<path class="st1" d="M301.5,1140.2v-4.9l19.3-9.1v5.3l-14.3,6.2l14.3,6.2v5.3L301.5,1140.2z"/>
		<path class="st1" d="M347.6,1128.5c1.7,1.1,3.1,2.5,4.1,4.3c1,1.8,1.5,3.9,1.5,6.1c0,2.3-0.5,4.3-1.5,6.2c-1,1.9-2.3,3.3-4.1,4.4
			c-1.7,1.1-3.6,1.6-5.7,1.6c-3.2,0-5.6-1.2-7.4-3.6v12.6h-5.2v-32.7h5.1v3.1c1.8-2.4,4.3-3.6,7.5-3.6
			C344,1126.9,345.9,1127.5,347.6,1128.5z M336,1133.9c-1.3,1.4-1.9,3.1-1.9,5.1c0,2.1,0.6,3.8,1.9,5.2c1.3,1.4,2.9,2,4.9,2
			c2,0,3.7-0.7,4.9-2.1c1.3-1.4,1.9-3.1,1.9-5.1s-0.6-3.8-1.9-5.1c-1.3-1.4-2.9-2-4.9-2C339,1131.8,337.3,1132.5,336,1133.9z"/>
		<path class="st1" d="M379.3,1135.3v4.9l-19.3,9.1v-5.3l14.3-6.2l-14.3-6.3v-5.3L379.3,1135.3z"/>
		<path class="st1" d="M393,1149.6c-1.9-1-3.4-2.4-4.5-4.3c-1.1-1.9-1.6-4-1.6-6.5v-2.3h5.6v2.2c0,2.2,0.7,3.9,2,5.2
			c1.3,1.3,3.1,1.9,5.2,1.9c2.2,0,4-0.7,5.3-2.1c1.3-1.4,1.9-3.5,1.9-6.2v-7.5c0-2.8-0.7-4.9-2-6.3c-1.3-1.4-3.1-2.1-5.3-2.1
			c-2.1,0-3.8,0.6-5.1,1.8c-1.3,1.2-1.9,2.9-1.9,5v0.9H387v-1c0-2.4,0.5-4.6,1.6-6.4c1.1-1.8,2.6-3.2,4.5-4.2s4.1-1.5,6.6-1.5
			c2.5,0,4.8,0.5,6.7,1.5c1.9,1,3.4,2.5,4.5,4.6c1.1,2,1.6,4.4,1.6,7.3v7.9c0,2.8-0.5,5.2-1.6,7.3c-1.1,2-2.6,3.6-4.5,4.6
			c-1.9,1.1-4.2,1.6-6.7,1.6C397.2,1151.1,395,1150.6,393,1149.6z"/>
		<path class="st1" d="M422.8,1147.6c-2.4-2.3-3.6-5.7-3.6-10v-20.7h5.7v20.4c0,2.9,0.7,5,2,6.4c1.3,1.4,3.1,2.1,5.4,2.1
			c2.3,0,4.1-0.6,5.4-1.7c1.3-1.2,2-2.7,2-4.8c0-1.1-0.2-2-0.6-2.7c-0.4-0.7-1-1.6-1.8-2.4c-0.9-1.1-1.5-2-1.9-2.8
			c-0.4-0.8-0.6-1.8-0.6-3h5.6c0,0.6,0.2,1.1,0.5,1.6c0.3,0.5,0.8,1.1,1.4,1.8c1.1,1.2,1.9,2.4,2.4,3.6c0.6,1.1,0.8,2.6,0.8,4.5
			c0,2.2-0.6,4.1-1.7,5.8c-1.1,1.7-2.7,3-4.7,4c-2,1-4.3,1.4-6.9,1.4C428.3,1151.1,425.1,1150,422.8,1147.6z"/>
		<path class="st1" d="M467.9,1149.6c-2-1-3.6-2.4-4.8-4.1c-1.2-1.8-1.7-3.8-1.7-6v-1.8h5.6v1.4c0,2,0.7,3.7,2.1,4.9
			c1.4,1.2,3.3,1.9,5.7,1.9c2.3,0,4.2-0.5,5.5-1.4c1.4-0.9,2-2.2,2-3.7s-0.6-2.7-1.7-3.5c-1.1-0.8-2.6-1.2-4.4-1.2h-3.3v-5.1h4.2
			c1.6,0,2.8-0.2,3.6-0.7c0.8-0.4,1.1-1.2,1.1-2.2c0-1-0.4-1.7-1.1-2.2c-0.7-0.5-1.8-1-3.3-1.4c-1.4-0.4-2.6-0.9-3.6-1.4
			s-1.8-1.3-2.4-2.3c-0.7-1-1-2.3-1-3.9h5.6c0.1,0.7,0.4,1.2,0.9,1.7c0.5,0.4,1,0.8,1.6,1c0.5,0.2,1.6,0.6,3.1,1.2
			c1.9,0.7,3.4,1.5,4.5,2.6c1.1,1,1.7,2.5,1.7,4.4c0,1.6-0.5,2.9-1.4,3.8c-0.9,0.9-2.3,1.6-4,1.9c1.9,0.4,3.3,1.2,4.3,2.5
			c1,1.3,1.6,3,1.6,5c0,1.8-0.6,3.5-1.8,5.1c-1.2,1.6-2.8,2.8-4.8,3.7s-4.4,1.4-7,1.4C472.2,1151.1,469.9,1150.6,467.9,1149.6z"/>
		<path class="st1" d="M498.8,1149.5c-2-1.1-3.5-2.6-4.6-4.7c-1.1-2-1.6-4.5-1.6-7.3v-2.2h5.6v1.8c0,2.9,0.7,5,2,6.5
			c1.3,1.5,3.1,2.2,5.4,2.2c2.3,0,4.1-0.6,5.4-1.9c1.3-1.3,2-3.1,2-5.4c0-1.3-0.2-2.5-0.7-3.6c-0.4-1.1-1-2-1.7-2.9s-1.6-1.8-2.7-3
			c-1.2-1.2-2.1-2.3-2.9-3.1c-0.7-0.9-1.3-1.9-1.8-3.1c-0.5-1.2-0.7-2.6-0.7-4.1v-1.9h5.6v1.4c0,1.5,0.4,2.8,1.1,3.9
			c0.7,1.1,1.9,2.3,3.4,3.8c1.3,1.2,2.4,2.3,3.2,3.3c0.8,1,1.5,2.3,2.1,3.8s0.9,3.3,0.9,5.3c0,2.6-0.6,4.8-1.7,6.7
			c-1.1,1.9-2.7,3.4-4.7,4.4c-2,1-4.3,1.5-6.9,1.5C503,1151.1,500.8,1150.6,498.8,1149.5z"/>
		<path class="st1" d="M558.1,1129.5c1.6,1,2.8,2.3,3.7,4c0.9,1.7,1.3,3.7,1.3,5.8v11.1h-5.8v-10.6c0-2.1-0.4-3.7-1.3-4.9
			c-0.9-1.2-2.2-1.7-3.9-1.7c-1.7,0-3,0.6-4,1.7c-1,1.1-1.5,2.7-1.5,4.7v6.9h-5.8v-6.9c0-2-0.4-3.6-1.3-4.7
			c-0.9-1.1-2.2-1.7-3.9-1.7c-1.7,0-3,0.6-4,1.8c-1,1.2-1.5,2.8-1.5,5v10.5h-5.8v-15.7c0-4.4,0.9-7.9,2.6-10.6
			c1.8-2.7,4-4.6,6.9-5.7c2.8-1.1,5.9-1.7,9.3-1.7h10.2v5.2h-9.5c-4,0-7.2,0.8-9.7,2.3s-4,3.8-4.4,7c0.7-1,1.7-1.8,2.8-2.4
			c1.1-0.6,2.3-0.9,3.6-0.9c1.6,0,3.1,0.5,4.5,1.4c1.4,0.9,2.4,2.3,3.1,4.1c1.8-3.7,4.8-5.5,9-5.5
			C554.7,1128.1,556.5,1128.6,558.1,1129.5z"/>
		<path class="st1" d="M574,1149.5c-2-1.1-3.5-2.6-4.6-4.7c-1.1-2-1.6-4.5-1.6-7.3v-2.2h5.6v1.8c0,2.9,0.7,5,2,6.5
			c1.3,1.5,3.1,2.2,5.4,2.2c2.3,0,4.1-0.6,5.4-1.9c1.3-1.3,2-3.1,2-5.4c0-1.3-0.2-2.5-0.7-3.6c-0.4-1.1-1-2-1.7-2.9s-1.6-1.8-2.7-3
			c-1.2-1.2-2.1-2.3-2.9-3.1c-0.7-0.9-1.3-1.9-1.8-3.1c-0.5-1.2-0.7-2.6-0.7-4.1v-1.9h5.6v1.4c0,1.5,0.4,2.8,1.1,3.9
			c0.7,1.1,1.9,2.3,3.4,3.8c1.3,1.2,2.4,2.3,3.2,3.3c0.8,1,1.5,2.3,2.1,3.8s0.9,3.3,0.9,5.3c0,2.6-0.6,4.8-1.7,6.7
			c-1.1,1.9-2.7,3.4-4.7,4.4c-2,1-4.3,1.5-6.9,1.5C578.2,1151.1,575.9,1150.6,574,1149.5z"/>
		<path class="st1" d="M605.2,1149.6c-2-1-3.5-2.4-4.6-4.1c-1.1-1.8-1.6-3.7-1.6-6c0-3.3,1.1-5.9,3.4-8c2.2-2,5.2-3.2,9-3.6
			c1.4-0.1,2.5-0.4,3.4-0.9c0.9-0.5,1.3-1.4,1.3-2.6c0-1.1-0.4-2-1.3-2.6c-0.8-0.7-1.9-1-3.1-1c-1.2,0-2.3,0.3-3.1,1
			c-0.8,0.7-1.2,1.6-1.2,2.8v0.8H602v-0.9c0-1.6,0.4-3,1.3-4.2c0.9-1.2,2.1-2.2,3.6-2.9c1.5-0.7,3.1-1,4.9-1c1.9,0,3.5,0.3,5,1
			c1.5,0.7,2.7,1.6,3.5,2.7s1.2,2.4,1.2,3.7c0,1.4-0.3,2.5-1,3.5c-0.7,0.9-1.7,1.7-3,2.3c2.6,0.7,4.5,2,5.8,3.7s1.9,3.9,1.9,6.2
			c0,2.2-0.5,4.2-1.6,6c-1.1,1.8-2.6,3.1-4.6,4.1c-2,1-4.3,1.5-6.9,1.5C609.4,1151.1,607.2,1150.6,605.2,1149.6z M617.3,1144.3
			c1.3-1.2,2-2.9,2-4.9c0-2-0.7-3.5-2-4.8c-1.3-1.2-3.1-1.8-5.3-1.8c-2.1,0-3.9,0.6-5.2,1.8c-1.3,1.2-2,2.8-2,4.8c0,2,0.7,3.6,2,4.9
			c1.3,1.2,3.1,1.9,5.2,1.9C614.2,1146.1,615.9,1145.5,617.3,1144.3z"/>
		<path class="st1" d="M664.4,1129.5c1.6,1,2.8,2.3,3.7,4c0.9,1.7,1.3,3.7,1.3,5.8v11.1h-5.8v-10.6c0-2.1-0.4-3.7-1.3-4.9
			c-0.9-1.2-2.2-1.7-3.9-1.7c-1.7,0-3,0.6-4,1.7c-1,1.1-1.5,2.7-1.5,4.7v6.9H647v-6.9c0-2-0.4-3.6-1.3-4.7c-0.9-1.1-2.2-1.7-3.9-1.7
			c-1.7,0-3,0.6-4,1.8c-1,1.2-1.5,2.8-1.5,5v10.5h-5.8v-15.7c0-4.4,0.9-7.9,2.6-10.6c1.8-2.7,4-4.6,6.9-5.7c2.8-1.1,5.9-1.7,9.3-1.7
			h10.2v5.2H650c-4,0-7.2,0.8-9.7,2.3s-4,3.8-4.4,7c0.7-1,1.7-1.8,2.8-2.4c1.1-0.6,2.3-0.9,3.6-0.9c1.6,0,3.1,0.5,4.5,1.4
			c1.4,0.9,2.4,2.3,3.1,4.1c1.8-3.7,4.8-5.5,9-5.5C661,1128.1,662.8,1128.6,664.4,1129.5z"/>
		<path class="st1" d="M680.2,1149.5c-2-1.1-3.5-2.6-4.6-4.7c-1.1-2-1.6-4.5-1.6-7.3v-2.2h5.6v1.8c0,2.9,0.7,5,2,6.5
			c1.3,1.5,3.1,2.2,5.4,2.2c2.3,0,4.1-0.6,5.4-1.9c1.3-1.3,2-3.1,2-5.4c0-1.3-0.2-2.5-0.7-3.6c-0.4-1.1-1-2-1.7-2.9s-1.6-1.8-2.7-3
			c-1.2-1.2-2.1-2.3-2.9-3.1c-0.7-0.9-1.3-1.9-1.8-3.1c-0.5-1.2-0.7-2.6-0.7-4.1v-1.9h5.6v1.4c0,1.5,0.4,2.8,1.1,3.9
			c0.7,1.1,1.9,2.3,3.4,3.8c1.3,1.2,2.4,2.3,3.2,3.3c0.8,1,1.5,2.3,2.1,3.8s0.9,3.3,0.9,5.3c0,2.6-0.6,4.8-1.7,6.7
			c-1.1,1.9-2.7,3.4-4.7,4.4c-2,1-4.3,1.5-6.9,1.5C684.5,1151.1,682.2,1150.6,680.2,1149.5z"/>
		<path class="st1" d="M716.5,1149c-2.6-1.6-4-3.9-4.1-7h6.1c0.2,1.4,1,2.4,2.4,3.1c1.4,0.7,3.4,1.1,5.9,1.1c2.5,0,4.4-0.5,5.8-1.4
			c1.4-1,2.1-2.3,2.1-4c0-1.4-0.4-2.5-1.2-3.3c-0.8-0.8-2-1.2-3.5-1.2h-1.1v-5.1h1.8c1.6,0,2.8-0.4,3.8-1.1s1.4-1.9,1.4-3.5
			s-0.4-2.8-1.3-3.7c-0.9-0.9-2-1.3-3.5-1.3c-1.5,0-2.7,0.5-3.6,1.4c-0.9,1-1.3,2.3-1.3,3.9v1c0,2.1-0.5,4-1.4,5.7
			c-1,1.6-2.3,2.9-4,3.8s-3.6,1.4-5.7,1.4c-2.2,0-4.1-0.5-5.8-1.4c-1.7-0.9-3-2.2-3.9-3.9c-0.9-1.7-1.4-3.7-1.4-5.9
			c0-2.1,0.5-4,1.4-5.7c0.9-1.7,2.2-3,3.8-4c1.6-1,3.5-1.4,5.5-1.4c1.9,0,3.6,0.4,5.2,1.3c1.6,0.9,2.7,2.2,3.5,3.9
			c0.7-1.7,1.8-3,3.4-3.9c1.6-0.9,3.3-1.3,5.2-1.3c1.8,0,3.4,0.4,4.9,1.2c1.5,0.8,2.6,2,3.5,3.4c0.9,1.4,1.3,3.1,1.3,4.8
			c0,4.3-2,6.9-5.9,8.1c1.5,0.5,2.6,1.4,3.5,2.7c0.8,1.3,1.2,2.9,1.2,4.7c0,2-0.6,3.7-1.8,5.3c-1.2,1.5-2.8,2.7-4.9,3.5
			c-2.1,0.8-4.6,1.2-7.4,1.2C722.5,1151.4,719.1,1150.6,716.5,1149z M719.5,1132.1c1-1.1,1.5-2.6,1.5-4.5c0-1.9-0.5-3.4-1.5-4.6
			c-1-1.1-2.3-1.7-4.1-1.7c-1.7,0-3,0.6-4,1.7c-1,1.1-1.5,2.6-1.5,4.5c0,1.9,0.5,3.4,1.5,4.5c1,1.1,2.4,1.7,4,1.7
			C717.2,1133.8,718.5,1133.2,719.5,1132.1z"/>
		<path class="st1" d="M748.2,1129.7c0-2.8,0.5-5.2,1.6-7.2c1.1-2,2.6-3.5,4.4-4.6c1.9-1,4.1-1.6,6.5-1.6c2.4,0,4.6,0.5,6.5,1.6
			c1.9,1,3.4,2.6,4.5,4.6c1.1,2,1.6,4.4,1.6,7.2v20.8h-5.6v-20.6c0-2.7-0.6-4.8-1.9-6.2s-3-2.1-5.1-2.1c-2.1,0-3.8,0.7-5,2.1
			c-1.3,1.4-1.9,3.5-1.9,6.1v20.6h-5.7V1129.7z"/>
		<path class="st1" d="M785.5,1149.5c-2-1.1-3.5-2.6-4.6-4.7c-1.1-2-1.6-4.5-1.6-7.3v-2.2h5.6v1.8c0,2.9,0.7,5,2,6.5
			c1.3,1.5,3.1,2.2,5.4,2.2c2.3,0,4.1-0.6,5.4-1.9c1.3-1.3,2-3.1,2-5.4c0-1.3-0.2-2.5-0.7-3.6c-0.4-1.1-1-2-1.7-2.9s-1.6-1.8-2.7-3
			c-1.2-1.2-2.1-2.3-2.9-3.1c-0.7-0.9-1.3-1.9-1.8-3.1c-0.5-1.2-0.7-2.6-0.7-4.1v-1.9h5.6v1.4c0,1.5,0.4,2.8,1.1,3.9
			c0.7,1.1,1.9,2.3,3.4,3.8c1.3,1.2,2.4,2.3,3.2,3.3c0.8,1,1.5,2.3,2.1,3.8s0.9,3.3,0.9,5.3c0,2.6-0.6,4.8-1.7,6.7
			c-1.1,1.9-2.7,3.4-4.7,4.4c-2,1-4.3,1.5-6.9,1.5C789.7,1151.1,787.5,1150.6,785.5,1149.5z"/>
		<path class="st1" d="M824.9,1140.2v-4.9l19.3-9.1v5.3l-14.3,6.2l14.3,6.2v5.3L824.9,1140.2z"/>
		<path class="st1" d="M848.3,1155.3l20.4-41.8h5.6l-20.4,41.8H848.3z"/>
		<path class="st1" d="M892.4,1128.5c1.7,1.1,3.1,2.5,4.1,4.3c1,1.8,1.5,3.9,1.5,6.1c0,2.3-0.5,4.3-1.5,6.2c-1,1.9-2.3,3.3-4.1,4.4
			c-1.7,1.1-3.6,1.6-5.7,1.6c-3.2,0-5.6-1.2-7.4-3.6v12.6H874v-32.7h5.1v3.1c1.8-2.4,4.3-3.6,7.5-3.6
			C888.8,1126.9,890.7,1127.5,892.4,1128.5z M880.9,1133.9c-1.3,1.4-1.9,3.1-1.9,5.1c0,2.1,0.6,3.8,1.9,5.2c1.3,1.4,2.9,2,4.9,2
			c2,0,3.7-0.7,4.9-2.1c1.3-1.4,1.9-3.1,1.9-5.1s-0.6-3.8-1.9-5.1c-1.3-1.4-2.9-2-4.9-2C883.8,1131.8,882.2,1132.5,880.9,1133.9z"/>
		<path class="st1" d="M924.1,1135.3v4.9l-19.3,9.1v-5.3l14.3-6.2l-14.3-6.3v-5.3L924.1,1135.3z"/>
	</g>
</g>
</svg>
