<svg xmlns="http://www.w3.org/2000/svg" xmlns:xlink="http://www.w3.org/1999/xlink" viewBox="0 0 587 182"><defs><style>.cls-1,.cls-3,.cls-4{fill:none;}.cls-2{clip-path:url(#clip-path);}.cls-3,.cls-4,.cls-5{stroke:#000;}.cls-3,.cls-4,.cls-5,.cls-6{stroke-miterlimit:10;}.cls-4{stroke-width:0.75px;}.cls-5{stroke-width:0.25px;}.cls-6{fill:url(#New_Pattern_Swatch_1);stroke:url(#New_Pattern_Swatch_1);}</style><clipPath id="clip-path"><rect class="cls-1" width="79.5" height="80"/></clipPath><pattern id="New_Pattern_Swatch_1" data-name="New Pattern Swatch 1" width="79.5" height="80" patternTransform="translate(0 787)" patternUnits="userSpaceOnUse" viewBox="0 0 79.5 80"><rect class="cls-1" width="79.5" height="80"/><g class="cls-2"><path id="eFbXhEVdUtQ2" class="cls-3" d="M84,10.88a7,7,0,0,0,1.43-2,6.18,6.18,0,0,0,.47-2.3c0-.48,0-1,0-1.43a.26.26,0,0,1,0-.12h0l0,.11c-.1.5-.18,1-.29,1.46a2.74,2.74,0,0,1-.82,1.3A6.4,6.4,0,0,1,83.25,9l0,0A6.86,6.86,0,0,0,75,6.1h0l-.26.12c-.06,0-.08,0-.13,0a.22.22,0,0,1-.08-.1,7.28,7.28,0,0,1-.53-1.68A2.49,2.49,0,0,1,74,3c.19-.48.39-.9.61-1.37l0-.12h0s-.06.05-.07.09c-.29.4-.6.75-.86,1.16a6.44,6.44,0,0,0-1,2.14,6.78,6.78,0,0,0,0,2.46s0,0,0,0a6.5,6.5,0,0,0-2,3,6.84,6.84,0,1,0,13,4.15A7.34,7.34,0,0,0,84,10.88Z"/><path id="eFbXhEVdUtQ2-2" data-name="eFbXhEVdUtQ2" class="cls-3" d="M4,10.88a7,7,0,0,0,1.43-2,6.18,6.18,0,0,0,.47-2.3c0-.48,0-1,0-1.43a.26.26,0,0,1,0-.12h0l0,.11c-.1.5-.18,1-.29,1.46a2.74,2.74,0,0,1-.82,1.3A6.4,6.4,0,0,1,3.25,9l0,0A6.85,6.85,0,0,0-.59,6,6.91,6.91,0,0,0-5,6.1h0l-.26.12c-.06,0-.08,0-.13,0a.22.22,0,0,1-.08-.1,7.28,7.28,0,0,1-.53-1.68A2.42,2.42,0,0,1-6,3c.19-.48.39-.9.61-1.37l0-.12h0s-.06.05-.07.09c-.29.4-.6.75-.86,1.16a6.44,6.44,0,0,0-1,2.14,6.78,6.78,0,0,0,0,2.46s0,0,0,0a6.5,6.5,0,0,0-2,3A6.83,6.83,0,0,0-4.79,19,6.85,6.85,0,0,0,3.8,14.53,7.34,7.34,0,0,0,4,10.88Z"/><path id="eFbXhEVdUtQ2-3" data-name="eFbXhEVdUtQ2" class="cls-3" d="M28,71.53a6.92,6.92,0,0,0-.39-2.43,6.33,6.33,0,0,0-1.3-2c-.33-.35-.68-.67-1-1,0,0-.06,0-.08-.07h0l.05.09c.29.42.56.81.83,1.24a2.74,2.74,0,0,1,.34,1.5,6.9,6.9,0,0,1-.24,1.75l0,.06a6.81,6.81,0,0,0-4.79.56,7,7,0,0,0-3.08,3.22v0a2.77,2.77,0,0,1-.1.26c0,.06,0,.09-.06.11a.2.2,0,0,1-.13,0,7.68,7.68,0,0,1-1.56-.81,2.55,2.55,0,0,1-1-1.15c-.19-.47-.35-.92-.53-1.4l-.06-.11h0s0,.08,0,.11c.08.49.1,1,.21,1.43a6.58,6.58,0,0,0,.84,2.19,7,7,0,0,0,1.75,1.72s0,0,0,0a6.52,6.52,0,0,0,.7,3.58,6.84,6.84,0,0,0,12.15-6.28A7.22,7.22,0,0,0,28,71.53Z"/><path id="eFbXhEVdUtQ2-4" data-name="eFbXhEVdUtQ2" class="cls-3" d="M28-8.47a6.92,6.92,0,0,0-.39-2.43,6.33,6.33,0,0,0-1.3-2c-.33-.35-.68-.67-1-1,0,0-.06,0-.08-.07h0l.05.09c.29.42.56.81.83,1.24a2.74,2.74,0,0,1,.34,1.5,6.9,6.9,0,0,1-.24,1.75l0,.06a6.81,6.81,0,0,0-4.79.56,7,7,0,0,0-3.08,3.22v0a2.77,2.77,0,0,1-.1.26c0,.06,0,.09-.06.11a.2.2,0,0,1-.13,0,7.68,7.68,0,0,1-1.56-.81,2.55,2.55,0,0,1-1-1.15c-.19-.47-.35-.92-.53-1.4l-.06-.11h0c0,.05,0,.08,0,.11.08.49.1.95.21,1.43a6.58,6.58,0,0,0,.84,2.19,7,7,0,0,0,1.75,1.72s0,0,0,0A6.5,6.5,0,0,0,18.29.5a6.83,6.83,0,0,0,9.22,2.93,6.84,6.84,0,0,0,2.93-9.21A7.22,7.22,0,0,0,28-8.47Z"/><path class="cls-4" d="M34.75,18.5l7.5,4s3,.5,4.5,2l9,5L63.25,18s-6.5-8-10-4.5c0,0-1-4-6.5-4l-3,1Z"/><path class="cls-4" d="M42.25,22.5a4.64,4.64,0,0,0,4.5,2"/><polyline class="cls-4" points="34.75 18.5 37.5 18.25 46.75 9.5"/><path class="cls-4" d="M37.5,18.25s6.79,1.05,6.73,4.66a0,0,0,0,0,.08,0l8.94-9.45"/><polyline class="cls-4" points="55.75 29.5 52.5 25.25 60.37 15.09"/><path class="cls-4" d="M44.25,23s3.27-2.77,8.25,2.21"/><path class="cls-4" d="M57,72.84,44.7,72.3l-2.14-9.63L44.7,60h1.15l-.08-1.07,2.14.54-1.07-2.14,7.49,5.88,5.88-9.09,6.95,8,1.61,2.67L69.84,67l1.6,3.21L60.21,72.3S59.14,75,57,72.84Z"/><path class="cls-4" d="M60.21,72.3s-1.61-2.14-3.21.54"/><path class="cls-4" d="M47.91,59.47l2.14,4.81s8,5.89,8.55,7.22l-4.27-8.29"/><path class="cls-4" d="M58.6,71.5c-3.2-2.4-10.16-5.08-10.16-5.08L45.85,60"/><path class="cls-4" d="M44.7,60l2.67,8.56s10.18,2,10.71,3.12"/><path class="cls-4" d="M44.16,62.14,46.3,70.7s6.86-.18,9.32,1"/><path class="cls-4" d="M67.16,62.14s-6.42,4.28-8,8.56"/><path class="cls-4" d="M68.88,65s-7.25,3.52-9.3,6.46"/><path class="cls-4" d="M69.91,67.1s-6.49,2-8.63,3.6"/><polygon class="cls-3" points="9 32 10.5 33.5 -2.5 46.5 -6.5 48.5 -4.5 44.5 8.5 31.5 9 32"/><line class="cls-3" x1="7.16" y1="32.84" x2="9.16" y2="34.84"/><polygon class="cls-3" points="89 32 90.5 33.5 77.5 46.5 73.5 48.5 75.5 44.5 88.5 31.5 89 32"/><line class="cls-3" x1="87.16" y1="32.84" x2="89.16" y2="34.84"/><path class="cls-5" d="M36.94,43.86a2.91,2.91,0,1,0-3.23,2.46A2.93,2.93,0,0,0,36.94,43.86Zm-2.46.29a.89.89,0,0,0-1.09-.06.91.91,0,0,0-.27,1.08,1.94,1.94,0,0,1-1-2.1,2,2,0,0,1,3.94.36,2,2,0,0,1-1.49,1.92C34.84,44.84,34.81,44.44,34.48,44.15Z"/><path class="cls-5" d="M21.06,41.48a1.86,1.86,0,0,0,1.6,2.08,1.84,1.84,0,0,0,2-1.67,1.76,1.76,0,0,0-1.6-2A1.84,1.84,0,0,0,21.06,41.48ZM22.9,42c-.29-.05-.52.1-.7.48a1,1,0,0,1-.28-1.12,1.08,1.08,0,0,1,1-.71,1.07,1.07,0,0,1,1,.86,1,1,0,0,1-.53,1.13A.64.64,0,0,0,22.9,42Z"/><path class="cls-5" d="M21.74,51.63c-.06-.07-.07-.14,0-.2a1,1,0,0,1,.29-.22,11.49,11.49,0,0,1,3-.77,11.15,11.15,0,0,1,2.38-.12,9.05,9.05,0,0,1,1.93.39,16.91,16.91,0,0,1,3.39,1.59,1.05,1.05,0,0,1,.21.12,3.36,3.36,0,0,1,.24.29.38.38,0,0,1-.4,0c-.28-.19-.58-.36-.86-.53-.13-.08-.25,0-.34.11-.2.37-.41.73-.61,1.11-.06.1-.12.15-.23.09s0-.26,0-.39c.06-.35.11-.7.17-1.06a.36.36,0,0,0-.22-.4,8.28,8.28,0,0,0-2.56-.84A11.51,11.51,0,0,0,25,50.72c-.33,0-.44.19-.43.52s0,.9,0,1.35c0,0-.06.09-.12.15-.05-.19-.1-.34-.14-.49-.1-.32-.19-.65-.28-1a.49.49,0,0,0,0-.11c-.06-.19-.15-.24-.34-.17-.37.12-.73.26-1.09.4A2.34,2.34,0,0,1,21.74,51.63Z"/><path class="cls-5" d="M36.51,35.18a1.63,1.63,0,0,1-.29.23c-.39.2-.78.41-1.18.59a14.67,14.67,0,0,1-2.41.85c-.13,0-.28,0-.42.06a.54.54,0,0,1-.13,0,.69.69,0,0,1,.14-.15,6.58,6.58,0,0,1,.67-.4,15.61,15.61,0,0,1,3-1.14c.15,0,.31-.06.46-.09a.55.55,0,0,1,.18,0Z"/><path class="cls-5" d="M21.45,36.68c.19,0,.39.09.58.16a15.38,15.38,0,0,1,3.31,1.74c.08.06.15.14.23.21a.1.1,0,0,1,.05.06,1.25,1.25,0,0,1-.58-.11,15.76,15.76,0,0,1-2.9-1.46c-.2-.12-.38-.27-.56-.4a1.14,1.14,0,0,1-.15-.16Z"/></g></pattern></defs><g id="Layer_2" data-name="Layer 2"><g id="Layer_1-2" data-name="Layer 1"><path class="cls-6" d="M32.09.5H554.91A31.59,31.59,0,0,1,586.5,32.09V181.5a0,0,0,0,1,0,0H.5a0,0,0,0,1,0,0V32.09A31.59,31.59,0,0,1,32.09.5Z"/></g></g></svg>