<svg xmlns="http://www.w3.org/2000/svg" width="15.051" height="15.923" viewBox="0 0 15.051 15.923">
  <path id="arrow_bold" data-name="arrow bold" d="M4.066,15.923a3.838,3.838,0,0,1-1.939-.5C.758,14.631,0,13.038,0,10.943V4.983C0,2.888.758,1.295,2.128.5s3.119-.646,4.947.4L12.233,3.88c1.816,1.047,2.819,2.5,2.819,4.078s-1,3.03-2.819,4.078L7.074,15.009A6.025,6.025,0,0,1,4.066,15.923Zm0-14.249a2.178,2.178,0,0,0-1.114.279,3.3,3.3,0,0,0-1.281,3.03v5.949a3.294,3.294,0,0,0,1.292,3.03,3.32,3.32,0,0,0,3.275-.4L11.4,10.587A3.292,3.292,0,0,0,13.38,7.957,3.292,3.292,0,0,0,11.4,5.328L6.239,2.353A4.437,4.437,0,0,0,4.066,1.674Z" fill="#232323"/>
</svg>
