<svg xmlns="http://www.w3.org/2000/svg" width="35.982" height="36" viewBox="0 0 35.982 36">
  <path id="codeeditor" d="M25.542,0H10.458C3.906,0,0,3.906,0,10.458V25.524C0,32.094,3.906,36,10.458,36H25.524c6.552,0,10.458-3.906,10.458-10.458V10.458C36,3.906,32.094,0,25.542,0ZM14.292,20.286a12.738,12.738,0,0,1-4.9,4.32,1.375,1.375,0,0,1-.594.144,1.346,1.346,0,0,1-.594-2.556,9.9,9.9,0,0,0,3.852-3.4,1.412,1.412,0,0,0,0-1.584,10.164,10.164,0,0,0-3.852-3.4A1.344,1.344,0,1,1,9.4,11.394a12.738,12.738,0,0,1,4.9,4.32A4.073,4.073,0,0,1,14.292,20.286ZM27,24.75H19.8a1.35,1.35,0,1,1,0-2.7H27a1.35,1.35,0,0,1,0,2.7Z"/>
</svg>
