<?xml version="1.0" encoding="utf-8"?>
<!-- Generator: Adobe Illustrator 26.4.1, SVG Export Plug-In . SVG Version: 6.00 Build 0)  -->
<svg version="1.1" id="Layer_1" xmlns="http://www.w3.org/2000/svg" xmlns:xlink="http://www.w3.org/1999/xlink" x="0px" y="0px"
	 viewBox="0 0 101 101" style="enable-background:new 0 0 101 101;" xml:space="preserve">
<style type="text/css">
	.st0{fill:#111111;}
	.st1{fill:#FFFFFF;}
	.st2{fill:#4711EF;}
	.st3{enable-background:new    ;}
</style>
<g id="Group_18" transform="translate(-1990 -2252)">
	<path id="Path_35" class="st0" d="M2091,2264v77c0,6.6-5.4,12-12,12h-77c-6.6,0-12-5.4-12-12v-77c0-6.6,5.4-12,12-12h77
		C2085.6,2252,2091,2257.4,2091,2264z"/>
	<g id="Group_17">
		<path id="Path_36" class="st1" d="M2056.4,2308.5c-4.9,0-8.8-4-8.8-8.9s4-8.8,8.9-8.8s8.8,4,8.8,8.9c0,0.1,0,0.2,0,0.2
			C2065.1,2304.7,2061.2,2308.5,2056.4,2308.5z M2058.6,2305.3c2.3-0.5,4.2-3.7,3.8-6.4c-0.4-3.3-3.4-5.7-6.8-5.3
			c-2.9,0.4-5.1,2.7-5.3,5.6c-0.2,2.7,1.8,5.7,3.8,6c-0.7-1.1-0.5-2.5,0.4-3.4c0.9-0.8,2.3-0.9,3.3-0.2
			C2059.1,2302.5,2059.3,2303.6,2058.6,2305.3L2058.6,2305.3z"/>
		<path id="Path_37" class="st1" d="M2022,2293.1c3-0.1,5.5,2.2,5.6,5.2v0.1c0.1,3.1-2.3,5.7-5.3,5.8c-3.1,0.1-5.7-2.3-5.8-5.3
			c-0.1-3.1,2.3-5.7,5.3-5.8C2021.8,2293.1,2021.9,2293.1,2022,2293.1z M2023.9,2301.3c1.1-0.8,1.6-2.3,1.2-3.6
			c-0.4-1.4-1.8-2.3-3.3-2.2c-1.4,0.1-2.6,1.2-2.9,2.5c-0.3,1.2,0.2,2.5,1.3,3.3c0.4-1.2,1-1.8,1.9-1.7
			C2023,2299.6,2023.7,2300.2,2023.9,2301.3z"/>
		<path id="Path_38" class="st1" d="M2022.2,2329c-0.2-0.1-0.2-0.3-0.1-0.5c0,0,0-0.1,0.1-0.1c0.2-0.3,0.5-0.6,0.8-0.8
			c2.8-1.5,5.7-2.7,8.8-3.4c2.3-0.7,4.7-1.1,7.2-1.2c2-0.1,4,0.1,6,0.5c3.7,0.8,7.4,2,10.8,3.6c0.2,0.1,0.5,0.2,0.7,0.3
			c0.3,0.2,0.6,0.5,0.8,0.8c-0.4,0.2-0.9,0.3-1.2,0c-0.9-0.5-1.9-0.9-2.8-1.3c-0.4-0.2-0.8,0-1,0.5c-0.5,1.2-1,2.4-1.5,3.6
			c-0.1,0.3-0.3,0.5-0.7,0.4c0-0.4,0-0.8,0-1.2c0-1.1,0.1-2.2,0.1-3.3c0-0.5-0.3-1-0.8-1.1c-2.6-1-5.3-1.5-8.1-1.6
			c-3.3-0.1-6.5,0.2-9.7,1c-0.7,0.1-1.2,0.7-1.2,1.4c0,0.1,0,0.2,0.1,0.3c0.2,1.4,0.3,2.7,0.5,4.1c0,0.1-0.2,0.3-0.3,0.5
			c-0.2-0.5-0.4-1-0.6-1.4c-0.4-0.9-0.8-1.9-1.2-2.8c0-0.1-0.1-0.2-0.1-0.3c-0.3-0.5-0.6-0.7-1.1-0.4c-1.1,0.5-2.1,1.1-3.1,1.6
			C2023.8,2328.4,2023,2328.8,2022.2,2329z"/>
		<path id="Path_39" class="st1" d="M2060.8,2273.9c-0.2,0.3-0.5,0.5-0.8,0.8c-1.1,0.8-2.2,1.5-3.4,2.2c-2.2,1.4-4.5,2.5-7,3.5
			c-0.4,0.1-0.8,0.3-1.2,0.4c-0.1,0-0.3,0-0.4,0c0.1-0.2,0.2-0.4,0.4-0.5c0.6-0.5,1.2-1,1.9-1.4c2.7-1.8,5.5-3.3,8.5-4.5
			c0.4-0.2,0.9-0.3,1.4-0.4c0.2,0,0.4-0.1,0.5-0.1H2060.8z"/>
		<path id="Path_40" class="st1" d="M2015.8,2283.9c0.6,0.1,1.2,0.1,1.8,0.3c3.7,0.9,7.3,2.3,10.6,4.1c0.3,0.2,0.5,0.3,0.8,0.5
			c0.1,0,0.1,0.1,0.2,0.2c-0.6,0.1-1.2,0.1-1.8-0.1c-3.2-0.8-6.3-1.9-9.3-3.4c-0.6-0.3-1.2-0.7-1.8-1c-0.2-0.1-0.4-0.3-0.5-0.4
			L2015.8,2283.9z"/>
	</g>
</g>
<path class="st2" d="M89.3,101H11.7c-6.6,0-11.9-5.3-11.9-11.9V68.7h101.3v20.4C101.2,95.7,95.9,101,89.3,101z"/>
<g class="st3">
	<path class="st1" d="M42,91l-1-2.8h-5.1l-1,2.8h-2.5l4.7-12h2.9l4.7,12H42z M40.1,86l-1.7-4.6L36.6,86H40.1z"/>
	<path class="st1" d="M54.3,79.8c0.9,0.5,1.7,1.2,2.2,2.1c0.5,0.9,0.8,2,0.8,3.1c0,1.2-0.3,2.2-0.8,3.1s-1.2,1.6-2.2,2.1
		c-0.9,0.5-2,0.7-3.3,0.7h-4.9V79H51C52.2,79,53.3,79.3,54.3,79.8z M48.5,88.8H51c1.2,0,2.2-0.3,2.8-1c0.6-0.7,1-1.6,1-2.7
		c0-1.1-0.3-2.1-1-2.7c-0.6-0.7-1.6-1-2.8-1h-2.5V88.8z"/>
	<path class="st1" d="M64,81c-0.7,0-1.2,0.1-1.7,0.4c-0.4,0.3-0.6,0.6-0.6,1.1c0,0.4,0.2,0.7,0.6,0.9s1,0.4,1.9,0.5l0.7,0.1
		c2.5,0.4,3.8,1.5,3.8,3.4c0,0.8-0.2,1.6-0.7,2.2c-0.4,0.6-1,1-1.8,1.3s-1.6,0.4-2.4,0.4c-0.9,0-1.9-0.1-2.8-0.4
		c-0.9-0.3-1.7-0.7-2.3-1.2l1.2-1.9c0.5,0.4,1,0.7,1.7,0.9c0.7,0.2,1.4,0.4,2.1,0.4c0.7,0,1.2-0.1,1.7-0.4s0.7-0.6,0.7-1.1
		c0-0.4-0.2-0.7-0.6-0.9c-0.4-0.2-1-0.4-2-0.5L62.9,86c-2.4-0.4-3.7-1.5-3.7-3.4c0-0.8,0.2-1.5,0.7-2.1s1-1,1.7-1.3
		c0.7-0.3,1.5-0.4,2.4-0.4c0.8,0,1.6,0.1,2.4,0.3c0.7,0.2,1.5,0.5,2.2,1l-1.1,2C66.4,81.4,65.2,81,64,81z"/>
</g>
</svg>
