<svg xmlns="http://www.w3.org/2000/svg" width="35.844" height="31.949" viewBox="0 0 35.844 31.949">
  <g id="exercises" transform="translate(-164.99 -813.68)">
    <path id="Vector" d="M16.57,3.887v21.3a3.682,3.682,0,0,1-3.153,3.547l-.555.072A45.869,45.869,0,0,0,2.454,31.814,1.787,1.787,0,0,1,0,30.148V5.231A1.828,1.828,0,0,1,.967,3.636,34.373,34.373,0,0,1,12.575,0h.107A3.884,3.884,0,0,1,16.57,3.887Z" transform="translate(184.265 813.68)"/>
    <path id="Vector-2" data-name="Vector" d="M15.62,3.636A34.373,34.373,0,0,0,4.013,0H3.887A3.884,3.884,0,0,0,0,3.887v21.3a3.682,3.682,0,0,0,3.153,3.547l.555.072a45.869,45.869,0,0,1,10.408,3.009,1.787,1.787,0,0,0,2.454-1.666V5.231A1.79,1.79,0,0,0,15.62,3.636ZM5.392,9.064h4.03a1.343,1.343,0,0,1,0,2.687H5.392a1.343,1.343,0,0,1,0-2.687Zm5.374,8.061H5.392a1.343,1.343,0,1,1,0-2.687h5.374a1.343,1.343,0,1,1,0,2.687Z" transform="translate(164.99 813.68)"/>
  </g>
</svg>
