<svg xmlns="http://www.w3.org/2000/svg" width="36" height="34.173" viewBox="0 0 36 34.173">
  <g id="Lesseons" transform="translate(-83.475 -544.378)">
    <path id="Vector" d="M20.8,26.51c-.468.2-.971.378-1.511.558L16.445,28c-7.14,2.3-10.9.378-13.219-6.762l-2.3-7.1C-1.378,7,.529,3.219,7.669.917L10.438,0a22.554,22.554,0,0,0-.9,2.968L7.777,10.5C5.8,18.974,8.694,23.65,17.165,25.664Z" transform="translate(83.475 549.627)"/>
    <path id="Vector-2" data-name="Vector" d="M18.347,1.274l-3-.7C9.337-.848,5.758.321,3.654,4.673A18.838,18.838,0,0,0,2.323,8.63L.56,16.166c-1.763,7.518.558,11.223,8.057,13l3.021.719a18.909,18.909,0,0,0,2.914.486c5.611.54,8.6-2.086,10.108-8.579l1.763-7.518C28.185,6.76,25.883,3.037,18.347,1.274Zm-3.381,18.2a1.345,1.345,0,0,1-1.313,1.007,2.458,2.458,0,0,1-.342-.036L8.078,19.115a1.346,1.346,0,1,1,.665-2.608l5.234,1.331A1.345,1.345,0,0,1,14.966,19.475Zm5.27-6.079A1.345,1.345,0,0,1,18.923,14.4a2.458,2.458,0,0,1-.342-.036L9.858,12.155a1.346,1.346,0,0,1,.665-2.608l8.723,2.212A1.329,1.329,0,0,1,20.236,13.4Z" transform="translate(92.491 544.378)"/>
  </g>
</svg>
