<svg xmlns="http://www.w3.org/2000/svg" width="24" height="24" viewBox="0 0 24 24">
  <g id="vuesax_bold_direct-right" data-name="vuesax/bold/direct-right" transform="translate(-428 -252)">
    <path id="Vector" d="M.377,15.023l1.74-3.48a3.453,3.453,0,0,0,0-3.07L.377,4.983A3.432,3.432,0,0,1,5.047.413l1.54.82a.993.993,0,0,1,.48.51l5.69,12.65a1.076,1.076,0,0,1-.48,1.39l-7.24,3.81A3.428,3.428,0,0,1,.377,15.023Z" transform="translate(430.333 253.997)" fill="#292d32"/>
    <path id="Vector-2" data-name="Vector" d="M3.829,9.8.1,1.52A1.074,1.074,0,0,1,1.579.13l5.77,3.04a3.433,3.433,0,0,1,0,6.08l-2.04,1.07A1.082,1.082,0,0,1,3.829,9.8Z" transform="translate(440.481 257.8)" fill="#292d32"/>
    <path id="Vector-3" data-name="Vector" d="M0,0H24V24H0Z" transform="translate(428 252)" fill="none" opacity="0"/>
    <path id="Vector-4" data-name="Vector" d="M0,0H24V24H0Z" transform="translate(452 276) rotate(180)" fill="none" opacity="0"/>
  </g>
</svg>
